# xmcd
#
# Track frame offsets: 
#        150
#        24119
#        45408
#        67544
#        107873
#        135984
#        160612
#        176633
#        196881
#        223748
#
# Disc length: 3168 seconds
#
# Revision: 2
# Processed by: cddbd v1.5.2PL0 Copyright (c) Steve Scherf et al.
# Submitted via: ExactAudioCopy v1.0b3
#
DISCID=750c5e0a
DTITLE=Krakowska Grupa Bluesowa - Czekam na okazje
DYEAR=2002
DGENRE=Blues
TTITLE0=Karolina z Ludowinowa
TTITLE1=Krakowskie Kazamaty
TTITLE2=Mam Spory Problem
TTITLE3=Pewnego Dnia
TTITLE4=Chwiejne Korki
TTITLE5=Każdy Wie
TTITLE6=Ekspress Ponidzia
TTITLE7=Czekam
TTITLE8=Demon Prędkościi
TTITLE9=Blues O Ostatnim Pociągu
EXTD=fixed a typo
EXTT0=
EXTT1=
EXTT2=
EXTT3=
EXTT4=
EXTT5=
EXTT6=
EXTT7=
EXTT8=
EXTT9=
PLAYORDER=
